<svg xmlns="http://www.w3.org/2000/svg" width="406.127" height="387.524" viewBox="0 0 406.127 387.524">
  <g id="fingerprint_swrc" transform="translate(-18.833)">
    <path id="Path_44" data-name="Path 44" d="M594.213,206.574C571.356,116.7,492.381,51.82,399.681,49.218,350.673,47.842,299.1,64.1,261.556,120.973,194.437,222.648,265.681,292.909,315.35,326.3a310.788,310.788,0,0,1,64.239,57.738c33.55,39.812,98.092,89.284,174.959,11.769C610.261,339.619,609.437,266.44,594.213,206.574Z" transform="translate(-178.139 -49.139)" fill="#f2f2f2"/>
    <path id="Path_62" data-name="Path 62" d="M736.683,277.722" transform="translate(-415.32 -157.028)" fill="#2f2e41"/>
    <path id="Path_63" data-name="Path 63" d="M171.148,315.3a7.4,7.4,0,0,1-6.442-11.088c9.4-15.84,37.964-52.854,100.375-52.854,27.034,0,50.742,7.181,70.436,21.332a119.5,119.5,0,0,1,29.621,31.1,7.338,7.338,0,0,1-1.954,10.243,7.511,7.511,0,0,1-10.349-1.954c-7.867-11.4-31.733-46.042-87.755-46.042-54.7,0-79.413,31.892-87.491,45.567a7.289,7.289,0,0,1-6.442,3.7Z" transform="translate(-144.887 -144.586)" fill="#0e57ff"/>
    <path id="Path_64" data-name="Path 64" d="M303.934,484.78a7.356,7.356,0,0,1-1.848-.211c-45.25-11.352-62.147-57.078-62.833-58.979l-.106-.422c-.37-1.32-9.451-32.684,4.488-51.059,6.389-8.4,16.1-12.672,28.935-12.672,11.933,0,20.54,3.749,26.453,11.511,4.858,6.336,6.811,14.151,8.712,21.7,3.96,15.682,6.811,23.919,23.285,24.764,7.234.37,11.986-3.907,14.679-7.551,7.287-9.927,8.554-26.136,3.062-40.393-7.075-18.48-32.1-53.276-76.245-53.276-18.85,0-36.169,6.125-50.055,17.635a81.261,81.261,0,0,0-25.028,36.855c-8.131,25.767,2.534,66.265,2.64,66.635a7.324,7.324,0,0,1-5.28,8.976,7.5,7.5,0,0,1-9.135-5.227c-.475-1.848-11.88-45.039-2.482-74.819,10.243-32.261,41.818-64.787,89.339-64.787a93.552,93.552,0,0,1,60.035,21.807c13.411,11.088,24.394,25.978,30.1,40.868,7.287,19.008,5.333,40.34-4.963,54.279-6.864,9.293-16.632,14.151-27.456,13.623-28.2-1.426-33.265-21.332-36.961-35.852-3.8-14.89-6.23-22.071-20.751-22.071-7.973,0-13.57,2.218-17.055,6.811-4.752,6.283-5.122,16.1-4.594,23.232q.008.112.016.223a60.155,60.155,0,0,0,8.031,25.715c7.33,12.639,22.2,32.021,46.866,38.215a7.335,7.335,0,0,1,5.386,8.923,7.5,7.5,0,0,1-7.234,5.544Z" transform="translate(-152.324 -169.176)" fill="#0e57ff"/>
    <path id="Path_65" data-name="Path 65" d="M270.989,506.7a7.518,7.518,0,0,1-5.439-2.323c-18.111-19.22-28.354-40.71-32.209-67.585v-.158c-2.165-17.794,1-42.98,16.527-60.3,11.458-12.778,27.562-19.272,47.785-19.272,23.919,0,42.716,11.247,54.438,32.473a91.276,91.276,0,0,1,10.243,31.417,7.458,7.458,0,1,1-14.838,1.531,76.431,76.431,0,0,0-8.711-26.242c-9.082-16.21-22.916-24.447-41.185-24.447-15.787,0-28.143,4.8-36.644,14.309-12.25,13.675-14.626,34.743-12.936,48.682,3.379,23.76,12.408,42.663,28.354,59.56a7.3,7.3,0,0,1-.37,10.4A7.49,7.49,0,0,1,270.989,506.7Z" transform="translate(-177.46 -194.475)" fill="#0e57ff"/>
    <circle id="Ellipse_23" data-name="Ellipse 23" cx="9.504" cy="9.504" r="9.504" transform="translate(110.795 224.258)" fill="#0e57ff"/>
  </g>
</svg>
