<svg xmlns="http://www.w3.org/2000/svg" xmlns:xlink="http://www.w3.org/1999/xlink" width="640" height="640" viewBox="0 0 640 640"><defs><filter id="a" x="0" y="0" width="640" height="640" filterUnits="userSpaceOnUse"><feOffset dy="3" input="SourceAlpha"/><feGaussianBlur stdDeviation="49.5" result="b"/><feFlood flood-opacity="0.161"/><feComposite operator="in" in2="b"/><feComposite in="SourceGraphic"/></filter></defs><g transform="translate(-597.258 20.742)"><g transform="matrix(1, 0, 0, 1, 597.26, -20.74)" filter="url(#a)"><g transform="translate(148.5 145.5)" fill="#fff" stroke="#fff" stroke-width="1"><rect width="343" height="343" rx="90" stroke="none"/><rect x="0.5" y="0.5" width="342" height="342" rx="89.5" fill="none"/></g></g><g transform="translate(854.273 204.62)"><path d="M1.867,103.352c0-29.063,24.278-38.144,40.236-41.6s35.118-8.43,35.118-35.144" transform="translate(24.653 46.721)" fill="none" stroke="#0e57ff" stroke-width="20"/><path d="M0,0V95.059" transform="translate(25.33 44.435)" fill="none" stroke="#000" stroke-width="20"/><g transform="translate(0.485 0.138)" fill="#fff" stroke="#000" stroke-width="15"><ellipse cx="24.5" cy="25" rx="24.5" ry="25" stroke="none"/><ellipse cx="24.5" cy="25" rx="17" ry="17.5" fill="none"/></g><g transform="translate(0.485 134.138)" fill="#fff" stroke="#000" stroke-width="15"><circle cx="24.5" cy="24.5" r="24.5" stroke="none"/><circle cx="24.5" cy="24.5" r="17" fill="none"/></g><g transform="translate(76.485 27.138)" fill="#fff" stroke="#0e57ff" stroke-width="15"><circle cx="25" cy="25" r="25" stroke="none"/><circle cx="25" cy="25" r="17.5" fill="none"/></g></g></g></svg>